<?xml version="1.0" encoding="UTF-8"?>
<svg xmlns="http://www.w3.org/2000/svg" xmlns:xlink="http://www.w3.org/1999/xlink" width="370px" height="342px" viewBox="0 0 369 342" version="1.1">
<g id="surface1">
<path style=" stroke:none;fill-rule:nonzero;fill:rgb(93.333333%,93.333333%,93.333333%);fill-opacity:1;" d="M 4.914062 0 L 364.085938 0 C 366.582031 0 368.609375 2.03125 368.609375 4.53125 L 368.609375 337.46875 C 368.609375 339.96875 366.582031 342 364.085938 342 L 4.914062 342 C 2.417969 342 0.390625 339.96875 0.390625 337.46875 L 0.390625 4.53125 C 0.390625 2.03125 2.417969 0 4.914062 0 Z M 4.914062 0 "/>
<path style=" stroke:none;fill-rule:evenodd;fill:rgb(85.098039%,85.098039%,85.098039%);fill-opacity:1;" d="M 168.996094 159.34375 L 200.003906 159.34375 L 200.003906 182.65625 L 168.996094 182.65625 Z M 197.421875 161.929688 L 197.421875 180.070312 L 171.578125 180.070312 L 171.578125 161.929688 Z M 177.394531 164.523438 C 176.324219 164.523438 175.457031 165.390625 175.457031 166.46875 C 175.457031 167.539062 176.324219 168.40625 177.394531 168.40625 C 178.464844 168.40625 179.332031 167.539062 179.332031 166.46875 C 179.332031 165.390625 178.464844 164.523438 177.394531 164.523438 Z M 183.828125 172.296875 L 187.085938 167.113281 L 193.542969 177.476562 L 175.457031 177.476562 L 180.625 169.757812 Z M 183.828125 172.296875 "/>
</g>
</svg>
