<?xml version="1.0" encoding="UTF-8"?>
<svg xmlns="http://www.w3.org/2000/svg" xmlns:xlink="http://www.w3.org/1999/xlink" width="470px" height="435px" viewBox="0 0 469 435" version="1.1">
<g id="surface1">
<path style=" stroke:none;fill-rule:nonzero;fill:rgb(93.333333%,93.333333%,93.333333%);fill-opacity:1;" d="M 5.757812 0 L 463.242188 0 C 466.421875 0 469 2.582031 469 5.765625 L 469 429.234375 C 469 432.417969 466.421875 435 463.242188 435 L 5.757812 435 C 2.578125 435 0 432.417969 0 429.234375 L 0 5.765625 C 0 2.582031 2.578125 0 5.757812 0 Z M 5.757812 0 "/>
<path style=" stroke:none;fill-rule:evenodd;fill:rgb(85.098039%,85.098039%,85.098039%);fill-opacity:1;" d="M 214.753906 202.671875 L 254.246094 202.671875 L 254.246094 232.328125 L 214.753906 232.328125 Z M 250.957031 205.964844 L 250.957031 229.035156 L 218.042969 229.035156 L 218.042969 205.964844 Z M 225.449219 209.261719 C 224.085938 209.261719 222.980469 210.367188 222.980469 211.734375 C 222.980469 213.097656 224.085938 214.203125 225.449219 214.203125 C 226.8125 214.203125 227.917969 213.097656 227.917969 211.734375 C 227.917969 210.367188 226.8125 209.261719 225.449219 209.261719 Z M 233.644531 219.148438 L 237.792969 212.558594 L 246.019531 225.738281 L 222.980469 225.738281 L 229.5625 215.917969 Z M 233.644531 219.148438 "/>
</g>
</svg>
