<?xml version="1.0" encoding="UTF-8"?>
<svg xmlns="http://www.w3.org/2000/svg" xmlns:xlink="http://www.w3.org/1999/xlink" width="605px" height="640px" viewBox="0 0 605 640" version="1.1">
<g id="surface1">
<path style=" stroke:none;fill-rule:nonzero;fill:rgb(93.333333%,93.333333%,93.333333%);fill-opacity:1;" d="M 7.429688 0 L 597.570312 0 C 601.671875 0 605 3.796875 605 8.484375 L 605 631.515625 C 605 636.203125 601.671875 640 597.570312 640 L 7.429688 640 C 3.328125 640 0 636.203125 0 631.515625 L 0 8.484375 C 0 3.796875 3.328125 0 7.429688 0 Z M 7.429688 0 "/>
<path style=" stroke:none;fill-rule:evenodd;fill:rgb(85.098039%,85.098039%,85.098039%);fill-opacity:1;" d="M 277.027344 298.183594 L 327.972656 298.183594 L 327.972656 341.816406 L 277.027344 341.816406 Z M 323.726562 303.03125 L 323.726562 336.96875 L 281.273438 336.96875 L 281.273438 303.03125 Z M 290.824219 307.878906 C 289.066406 307.878906 287.640625 309.507812 287.640625 311.515625 C 287.640625 313.523438 289.066406 315.152344 290.824219 315.152344 C 292.582031 315.152344 294.007812 313.523438 294.007812 311.515625 C 294.007812 309.507812 292.582031 307.878906 290.824219 307.878906 Z M 301.398438 322.425781 L 306.746094 312.726562 L 317.359375 332.121094 L 287.640625 332.121094 L 296.132812 317.671875 Z M 301.398438 322.425781 "/>
</g>
</svg>
