<svg width="24" height="22" viewBox="0 0 24 22" xmlns="http://www.w3.org/2000/svg">
<path fill-rule="evenodd" clip-rule="evenodd" d="M0 12C0 5.373 5.373 0 12 0C18.627 0 24 5.373 24 12C24 14.583 23.184 17.042 21.795 19H17.438C16.508 20.647 14.423 22 12 22C9.577 22 7.492 20.647 6.562 19H2.205C0.816 17.042 0 14.583 0 12ZM12 2C17.514 2 22 6.486 22 12C22 13.758 21.542 15.5 20.697 17H16.27C15.86 18.047 14.625 20 12 20C9.344 20 8.141 18.047 7.73 17H3.303C2.458 15.5 2 13.758 2 12C2 6.486 6.486 2 12 2ZM12.67 3.828C12.451 3.811 12.233 3.802 12.022 3.802C11.809 3.802 11.59 3.811 11.372 3.828V6.612C11.588 6.587 11.806 6.574 12.022 6.574C12.237 6.574 12.456 6.587 12.67 6.612V3.828ZM15.86 4.757C15.473 4.552 15.07 4.378 14.66 4.238L13.637 6.811C14.055 6.936 14.457 7.11 14.837 7.33L15.86 4.757ZM9.185 7.342C9.565 7.121 9.966 6.946 10.383 6.819L9.35 4.25C8.938 4.392 8.537 4.567 8.15 4.774L9.185 7.342ZM8.389 7.899C8.05 8.182 7.742 8.502 7.471 8.856L5.58 6.888C5.862 6.545 6.171 6.224 6.499 5.931L8.389 7.899ZM19.527 8.518C19.729 8.916 19.902 9.333 20.043 9.76L17.59 10.866C17.463 10.434 17.29 10.017 17.073 9.624L19.527 8.518ZM6.924 9.707C6.713 10.103 6.547 10.522 6.426 10.957L3.956 9.891C4.09 9.464 4.258 9.044 4.454 8.641L6.924 9.707ZM17.543 5.931C17.871 6.224 18.18 6.546 18.461 6.888L16.571 8.856C16.3 8.503 15.992 8.182 15.652 7.899L17.543 5.931ZM9.678 15.267C9.678 16.561 10.728 17.61 12.021 17.61C13.316 17.61 14.365 16.561 14.365 15.267C14.365 14.384 13.877 13.615 13.154 13.216L12.021 7.907L10.888 13.216C10.167 13.615 9.678 14.384 9.678 15.267Z"/>
</svg>
