<svg version="1.1" xmlns="http://www.w3.org/2000/svg" xmlns:xlink="http://www.w3.org/1999/xlink" width="20" height="24" viewBox="0,0,213.325,256"><g fill-rule="evenodd" stroke-width="1" stroke-linecap="butt" stroke-linejoin="miter" stroke-miterlimit="10" stroke-dasharray="" stroke-dashoffset="0" font-family="none" font-weight="none" font-size="none" text-anchor="none" style="mix-blend-mode: normal"><g transform="translate(-0.00417,0) scale(10.66667,10.66667)"><path d="M14.949,16.132h2.332c-1.092,1.728 -3.605,3.638 -6.281,3.852v-4.096c1.492,-0.38 3.027,-1.302 4.245,-2.963l-1.613,-1.183c-0.778,1.062 -1.711,1.711 -2.632,2.056v-3.805l0.354,-0.088l0.0039,-0.00093c2.4708,-0.59771 5.0234,-1.21522 5.6091,-3.43007c0.558,-2.107 -0.952,-3.66 -3.061,-4.319c0.162,0.756 0.109,1.378 -0.123,2.085c0.802,0.347 1.473,0.874 1.25,1.723c-0.275,1.042 -2.169,1.518 -4.033,1.97v-0.036c0,-1.20934 0.5121,-1.86538 1.018,-2.51356c0.4939,-0.6328 0.982,-1.25811 0.982,-2.38344c0,-1.654 -1.346,-3 -3,-3c-1.654,0 -3,1.346 -3,3c0,1.13471 0.48807,1.75525 0.98199,2.38323c0.50593,0.64324 1.01801,1.2943 1.01801,2.51377v0.556c-2.066,0.617 -3.903,1.567 -4.039,3.798c-0.116,1.893 1.34,3.645 4.039,3.818v3.931c-2.639,-0.18 -5.133,-2.053 -6.281,-3.868h2.332l-5.051,-3.132v5.912l1.269,-1.8c1.62272,2.7043 3.5971,3.7131 5.42493,4.6471c1.21571,0.6211 2.36659,1.2092 3.30607,2.2409c0.9394,-1.0316 2.0901,-1.6197 3.3057,-2.2408c1.8279,-0.9341 3.8025,-1.9431 5.4253,-4.6482l1.269,1.8v-5.911zM10,2c0.552,0 1,0.449 1,1c0,0.551 -0.448,1 -1,1c-0.552,0 -1,-0.449 -1,-1c0,-0.551 0.448,-1 1,-1zM9,10.56c-1.234,0.43 -1.99,0.948 -2.043,1.814c-0.044,0.717 0.504,1.543 2.043,1.702z"></path></g></g></svg>